<?xml version="1.0" encoding="UTF-8"?>
<!-- Do not edit this file with editors other than draw.io -->
<!DOCTYPE svg PUBLIC "-//W3C//DTD SVG 1.1//EN" "http://www.w3.org/Graphics/SVG/1.1/DTD/svg11.dtd">
<svg xmlns="http://www.w3.org/2000/svg" xmlns:xlink="http://www.w3.org/1999/xlink" version="1.1" width="862px" height="562px" viewBox="-0.5 -0.5 862 562" content="&lt;mxfile host=&quot;Electron&quot; agent=&quot;Mozilla/5.0 (Windows NT 10.0; Win64; x64) AppleWebKit/537.36 (KHTML, like Gecko) draw.io/25.0.2 Chrome/128.0.6613.186 Electron/32.2.5 Safari/537.36&quot; version=&quot;25.0.2&quot; scale=&quot;1&quot; border=&quot;0&quot;&gt;&#10;  &lt;diagram name=&quot;Seite-1&quot; id=&quot;dZvnBeCN4QeA3nG8ZgiS&quot;&gt;&#10;    &lt;mxGraphModel dx=&quot;1921&quot; dy=&quot;1194&quot; grid=&quot;1&quot; gridSize=&quot;10&quot; guides=&quot;1&quot; tooltips=&quot;1&quot; connect=&quot;1&quot; arrows=&quot;1&quot; fold=&quot;1&quot; page=&quot;1&quot; pageScale=&quot;1&quot; pageWidth=&quot;1600&quot; pageHeight=&quot;900&quot; math=&quot;0&quot; shadow=&quot;0&quot;&gt;&#10;      &lt;root&gt;&#10;        &lt;mxCell id=&quot;0&quot; /&gt;&#10;        &lt;mxCell id=&quot;1&quot; parent=&quot;0&quot; /&gt;&#10;        &lt;mxCell id=&quot;BfndSBIKlCEP5RWGC1Yz-2&quot; value=&quot;&quot; style=&quot;fontColor=#0066CC;verticalAlign=top;verticalLabelPosition=bottom;labelPosition=center;align=center;html=1;outlineConnect=0;fillColor=#CCCCCC;strokeColor=#6881B3;gradientColor=none;gradientDirection=north;strokeWidth=2;shape=mxgraph.networks.server;&quot; vertex=&quot;1&quot; parent=&quot;1&quot;&gt;&#10;          &lt;mxGeometry x=&quot;390&quot; y=&quot;565&quot; width=&quot;90&quot; height=&quot;100&quot; as=&quot;geometry&quot; /&gt;&#10;        &lt;/mxCell&gt;&#10;        &lt;mxCell id=&quot;BfndSBIKlCEP5RWGC1Yz-3&quot; value=&quot;&quot; style=&quot;outlineConnect=0;dashed=0;verticalLabelPosition=bottom;verticalAlign=top;align=center;html=1;shape=mxgraph.aws3.sensor;fillColor=#5294CF;gradientColor=none;&quot; vertex=&quot;1&quot; parent=&quot;1&quot;&gt;&#10;          &lt;mxGeometry x=&quot;40&quot; y=&quot;370&quot; width=&quot;76.5&quot; height=&quot;90&quot; as=&quot;geometry&quot; /&gt;&#10;        &lt;/mxCell&gt;&#10;        &lt;mxCell id=&quot;BfndSBIKlCEP5RWGC1Yz-4&quot; value=&quot;&quot; style=&quot;outlineConnect=0;dashed=0;verticalLabelPosition=bottom;verticalAlign=top;align=center;html=1;shape=mxgraph.aws3.sensor;fillColor=#5294CF;gradientColor=none;&quot; vertex=&quot;1&quot; parent=&quot;1&quot;&gt;&#10;          &lt;mxGeometry x=&quot;40&quot; y=&quot;570&quot; width=&quot;76.5&quot; height=&quot;90&quot; as=&quot;geometry&quot; /&gt;&#10;        &lt;/mxCell&gt;&#10;        &lt;mxCell id=&quot;BfndSBIKlCEP5RWGC1Yz-5&quot; value=&quot;&quot; style=&quot;outlineConnect=0;dashed=0;verticalLabelPosition=bottom;verticalAlign=top;align=center;html=1;shape=mxgraph.aws3.sensor;fillColor=#5294CF;gradientColor=none;&quot; vertex=&quot;1&quot; parent=&quot;1&quot;&gt;&#10;          &lt;mxGeometry x=&quot;40&quot; y=&quot;760&quot; width=&quot;76.5&quot; height=&quot;90&quot; as=&quot;geometry&quot; /&gt;&#10;        &lt;/mxCell&gt;&#10;        &lt;mxCell id=&quot;BfndSBIKlCEP5RWGC1Yz-7&quot; value=&quot;&quot; style=&quot;fontColor=#0066CC;verticalAlign=top;verticalLabelPosition=bottom;labelPosition=center;align=center;html=1;outlineConnect=0;fillColor=#CCCCCC;strokeColor=#6881B3;gradientColor=none;gradientDirection=north;strokeWidth=2;shape=mxgraph.networks.pc;&quot; vertex=&quot;1&quot; parent=&quot;1&quot;&gt;&#10;          &lt;mxGeometry x=&quot;750&quot; y=&quot;563&quot; width=&quot;150&quot; height=&quot;110&quot; as=&quot;geometry&quot; /&gt;&#10;        &lt;/mxCell&gt;&#10;        &lt;mxCell id=&quot;BfndSBIKlCEP5RWGC1Yz-8&quot; value=&quot;&quot; style=&quot;fontColor=#0066CC;verticalAlign=top;verticalLabelPosition=bottom;labelPosition=center;align=center;html=1;outlineConnect=0;fillColor=#CCCCCC;strokeColor=#6881B3;gradientColor=none;gradientDirection=north;strokeWidth=2;shape=mxgraph.networks.server;&quot; vertex=&quot;1&quot; parent=&quot;1&quot;&gt;&#10;          &lt;mxGeometry x=&quot;770&quot; y=&quot;760&quot; width=&quot;110&quot; height=&quot;120&quot; as=&quot;geometry&quot; /&gt;&#10;        &lt;/mxCell&gt;&#10;        &lt;mxCell id=&quot;BfndSBIKlCEP5RWGC1Yz-9&quot; value=&quot;&quot; style=&quot;shape=flexArrow;endArrow=classic;html=1;rounded=0;fillColor=#cccccc;gradientColor=none;strokeColor=none;&quot; edge=&quot;1&quot; parent=&quot;1&quot;&gt;&#10;          &lt;mxGeometry width=&quot;50&quot; height=&quot;50&quot; relative=&quot;1&quot; as=&quot;geometry&quot;&gt;&#10;            &lt;mxPoint x=&quot;140&quot; y=&quot;420&quot; as=&quot;sourcePoint&quot; /&gt;&#10;            &lt;mxPoint x=&quot;370&quot; y=&quot;563&quot; as=&quot;targetPoint&quot; /&gt;&#10;          &lt;/mxGeometry&gt;&#10;        &lt;/mxCell&gt;&#10;        &lt;mxCell id=&quot;BfndSBIKlCEP5RWGC1Yz-11&quot; value=&quot;&quot; style=&quot;shape=flexArrow;endArrow=classic;html=1;rounded=0;fillColor=#cccccc;gradientColor=none;strokeColor=none;&quot; edge=&quot;1&quot; parent=&quot;1&quot;&gt;&#10;          &lt;mxGeometry width=&quot;50&quot; height=&quot;50&quot; relative=&quot;1&quot; as=&quot;geometry&quot;&gt;&#10;            &lt;mxPoint x=&quot;140&quot; y=&quot;617.5&quot; as=&quot;sourcePoint&quot; /&gt;&#10;            &lt;mxPoint x=&quot;370&quot; y=&quot;618&quot; as=&quot;targetPoint&quot; /&gt;&#10;          &lt;/mxGeometry&gt;&#10;        &lt;/mxCell&gt;&#10;        &lt;mxCell id=&quot;BfndSBIKlCEP5RWGC1Yz-12&quot; value=&quot;&quot; style=&quot;shape=flexArrow;endArrow=classic;html=1;rounded=0;fillColor=#cccccc;gradientColor=none;strokeColor=none;&quot; edge=&quot;1&quot; parent=&quot;1&quot;&gt;&#10;          &lt;mxGeometry width=&quot;50&quot; height=&quot;50&quot; relative=&quot;1&quot; as=&quot;geometry&quot;&gt;&#10;            &lt;mxPoint x=&quot;140&quot; y=&quot;800&quot; as=&quot;sourcePoint&quot; /&gt;&#10;            &lt;mxPoint x=&quot;370&quot; y=&quot;680&quot; as=&quot;targetPoint&quot; /&gt;&#10;          &lt;/mxGeometry&gt;&#10;        &lt;/mxCell&gt;&#10;        &lt;mxCell id=&quot;BfndSBIKlCEP5RWGC1Yz-13&quot; value=&quot;&quot; style=&quot;shape=flexArrow;endArrow=classic;html=1;rounded=0;fillColor=#cccccc;gradientColor=none;strokeColor=none;&quot; edge=&quot;1&quot; parent=&quot;1&quot;&gt;&#10;          &lt;mxGeometry width=&quot;50&quot; height=&quot;50&quot; relative=&quot;1&quot; as=&quot;geometry&quot;&gt;&#10;            &lt;mxPoint x=&quot;500&quot; y=&quot;545&quot; as=&quot;sourcePoint&quot; /&gt;&#10;            &lt;mxPoint x=&quot;740&quot; y=&quot;370&quot; as=&quot;targetPoint&quot; /&gt;&#10;          &lt;/mxGeometry&gt;&#10;        &lt;/mxCell&gt;&#10;        &lt;mxCell id=&quot;BfndSBIKlCEP5RWGC1Yz-15&quot; value=&quot;&quot; style=&quot;shape=flexArrow;endArrow=classic;html=1;rounded=0;fillColor=#cccccc;gradientColor=none;strokeColor=none;&quot; edge=&quot;1&quot; parent=&quot;1&quot;&gt;&#10;          &lt;mxGeometry width=&quot;50&quot; height=&quot;50&quot; relative=&quot;1&quot; as=&quot;geometry&quot;&gt;&#10;            &lt;mxPoint x=&quot;500&quot; y=&quot;602.5&quot; as=&quot;sourcePoint&quot; /&gt;&#10;            &lt;mxPoint x=&quot;740&quot; y=&quot;602.5&quot; as=&quot;targetPoint&quot; /&gt;&#10;          &lt;/mxGeometry&gt;&#10;        &lt;/mxCell&gt;&#10;        &lt;mxCell id=&quot;BfndSBIKlCEP5RWGC1Yz-17&quot; value=&quot;&quot; style=&quot;shape=flexArrow;endArrow=classic;html=1;rounded=0;fillColor=#cccccc;gradientColor=none;strokeColor=none;&quot; edge=&quot;1&quot; parent=&quot;1&quot;&gt;&#10;          &lt;mxGeometry width=&quot;50&quot; height=&quot;50&quot; relative=&quot;1&quot; as=&quot;geometry&quot;&gt;&#10;            &lt;mxPoint x=&quot;500&quot; y=&quot;673&quot; as=&quot;sourcePoint&quot; /&gt;&#10;            &lt;mxPoint x=&quot;740&quot; y=&quot;820&quot; as=&quot;targetPoint&quot; /&gt;&#10;          &lt;/mxGeometry&gt;&#10;        &lt;/mxCell&gt;&#10;        &lt;mxCell id=&quot;BfndSBIKlCEP5RWGC1Yz-18&quot; value=&quot;&quot; style=&quot;shape=flexArrow;endArrow=classic;html=1;rounded=0;endWidth=12;endSize=5.196666666666666;&quot; edge=&quot;1&quot; parent=&quot;1&quot;&gt;&#10;          &lt;mxGeometry width=&quot;50&quot; height=&quot;50&quot; relative=&quot;1&quot; as=&quot;geometry&quot;&gt;&#10;            &lt;mxPoint x=&quot;740&quot; y=&quot;400&quot; as=&quot;sourcePoint&quot; /&gt;&#10;            &lt;mxPoint x=&quot;510&quot; y=&quot;570&quot; as=&quot;targetPoint&quot; /&gt;&#10;          &lt;/mxGeometry&gt;&#10;        &lt;/mxCell&gt;&#10;        &lt;mxCell id=&quot;BfndSBIKlCEP5RWGC1Yz-21&quot; value=&quot;&quot; style=&quot;shape=flexArrow;endArrow=classic;html=1;rounded=0;endWidth=12;endSize=5.196666666666666;&quot; edge=&quot;1&quot; parent=&quot;1&quot;&gt;&#10;          &lt;mxGeometry width=&quot;50&quot; height=&quot;50&quot; relative=&quot;1&quot; as=&quot;geometry&quot;&gt;&#10;            &lt;mxPoint x=&quot;720&quot; y=&quot;632.5&quot; as=&quot;sourcePoint&quot; /&gt;&#10;            &lt;mxPoint x=&quot;500&quot; y=&quot;632.5&quot; as=&quot;targetPoint&quot; /&gt;&#10;          &lt;/mxGeometry&gt;&#10;        &lt;/mxCell&gt;&#10;        &lt;mxCell id=&quot;BfndSBIKlCEP5RWGC1Yz-22&quot; value=&quot;&quot; style=&quot;shape=flexArrow;endArrow=classic;html=1;rounded=0;endWidth=12;endSize=5.196666666666666;&quot; edge=&quot;1&quot; parent=&quot;1&quot;&gt;&#10;          &lt;mxGeometry width=&quot;50&quot; height=&quot;50&quot; relative=&quot;1&quot; as=&quot;geometry&quot;&gt;&#10;            &lt;mxPoint x=&quot;710&quot; y=&quot;840&quot; as=&quot;sourcePoint&quot; /&gt;&#10;            &lt;mxPoint x=&quot;490&quot; y=&quot;703&quot; as=&quot;targetPoint&quot; /&gt;&#10;          &lt;/mxGeometry&gt;&#10;        &lt;/mxCell&gt;&#10;        &lt;mxCell id=&quot;BfndSBIKlCEP5RWGC1Yz-26&quot; value=&quot;&quot; style=&quot;verticalLabelPosition=bottom;html=1;verticalAlign=top;align=center;strokeColor=none;fillColor=#00BEF2;shape=mxgraph.azure.mobile_services;pointerEvents=1;&quot; vertex=&quot;1&quot; parent=&quot;1&quot;&gt;&#10;          &lt;mxGeometry x=&quot;771.25&quot; y=&quot;320&quot; width=&quot;107.5&quot; height=&quot;150&quot; as=&quot;geometry&quot; /&gt;&#10;        &lt;/mxCell&gt;&#10;      &lt;/root&gt;&#10;    &lt;/mxGraphModel&gt;&#10;  &lt;/diagram&gt;&#10;&lt;/mxfile&gt;&#10;"><defs/><g><g data-cell-id="0"><g data-cell-id="1"><g data-cell-id="BfndSBIKlCEP5RWGC1Yz-2"><g><rect x="350" y="330" width="90" height="15" rx="2" ry="2" fill="#cccccc" stroke="#6881b3" stroke-width="2" pointer-events="all"/><rect x="350" y="312.5" width="90" height="15" rx="2" ry="2" fill="#cccccc" stroke="#6881b3" stroke-width="2" pointer-events="all"/><rect x="350" y="295" width="90" height="15" rx="2" ry="2" fill="#cccccc" stroke="#6881b3" stroke-width="2" pointer-events="all"/><rect x="350" y="277.5" width="90" height="15" rx="2" ry="2" fill="#cccccc" stroke="#6881b3" stroke-width="2" pointer-events="all"/><rect x="350" y="260" width="90" height="15" rx="2" ry="2" fill="#cccccc" stroke="#6881b3" stroke-width="2" pointer-events="all"/><path d="M 354 258 L 375 245 L 415 245 L 436 258 Z" fill="#cccccc" stroke="#6881b3" stroke-width="2" stroke-miterlimit="10" pointer-events="all"/><ellipse cx="432" cy="337.5" rx="4" ry="4" fill="#ffffff" stroke="none" pointer-events="all"/><ellipse cx="431.67" cy="320" rx="4" ry="4" fill="#ffffff" stroke="none" pointer-events="all"/><ellipse cx="432" cy="302.5" rx="4" ry="4" fill="#ffffff" stroke="none" pointer-events="all"/><ellipse cx="432" cy="285" rx="4" ry="4" fill="#ffffff" stroke="none" pointer-events="all"/><ellipse cx="432" cy="267.5" rx="4" ry="4" fill="#ffffff" stroke="none" pointer-events="all"/><path d="M 355 343 L 360 332 L 365 332 L 360 343 Z M 365 343 L 370 332 L 375 332 L 370 343 Z M 375 343 L 380 332 L 385 332 L 380 343 Z M 385 343 L 390 332 L 395 332 L 390 343 Z M 395 343 L 400 332 L 405 332 L 400 343 Z M 405 343 L 410 332 L 415 332 L 410 343 Z M 355 325.5 L 360 314.5 L 365 314.5 L 360 325.5 Z M 365 325.5 L 370 314.5 L 375 314.5 L 370 325.5 Z M 375 325.5 L 380 314.5 L 385 314.5 L 380 325.5 Z M 385 325.5 L 390 314.5 L 395 314.5 L 390 325.5 Z M 395 325.5 L 400 314.5 L 405 314.5 L 400 325.5 Z M 405 325.5 L 410 314.5 L 415 314.5 L 410 325.5 Z M 355 308 L 360 297 L 365 297 L 360 308 Z M 365 308 L 370 297 L 375 297 L 370 308 Z M 375 308 L 379.5 297 L 384.5 297 L 379.5 308 Z M 385 308 L 390 297 L 395 297 L 390 308 Z M 395 308 L 400 297 L 405 297 L 400 308 Z M 405 308 L 410 297 L 415 297 L 410 308 Z M 355 290.5 L 360 279.5 L 365 279.5 L 360 290.5 Z M 365 290.5 L 370 279.5 L 375 279.5 L 370 290.5 Z M 375 290.5 L 380 279.5 L 385 279.5 L 380 290.5 Z M 385 290.5 L 390 279.5 L 395 279.5 L 390 290.5 Z M 395 290.5 L 400 279.5 L 405 279.5 L 400 290.5 Z M 405 290.5 L 410 279.5 L 415 279.5 L 410 290.5 Z M 355 273 L 360 262 L 365 262 L 360 273 Z M 365 273 L 370 262 L 375 262 L 370 273 Z M 375 273 L 380 262 L 385 262 L 380 273 Z M 385 273 L 390 262 L 395 262 L 390 273 Z M 395 273 L 400 262 L 405 262 L 400 273 Z M 405 273 L 410 262 L 415 262 L 410 273 Z" fill="#ffffff" stroke="none" pointer-events="all"/></g></g><g data-cell-id="BfndSBIKlCEP5RWGC1Yz-3"><g><path d="M 35.43 98.22 L 12.89 98.22 C 6.26 98.22 0 93.01 0 87.89 L 0 83.11 C 0 80.21 2.15 76.12 5.11 73.82 C 6.83 72.49 8.09 72.19 11 71.39 L 10.87 68.31 C 10.87 62.43 13.32 57.32 18.19 53.67 C 22.02 50.91 26.69 50 30.62 50.52 C 37 51.39 41.73 55.19 44.25 60.01 L 46.52 64.99 L 50.68 62.08 C 52.71 60.84 55.44 60.87 57.06 61.59 C 59.61 62.66 61.36 65.01 61.45 67.95 L 61.55 71.29 L 64.87 71.51 C 71 71.99 76.5 78.34 76.5 83.28 L 76.47 87.86 C 76.47 92.77 70.53 98.22 63.39 98.22 L 38.86 98.22 L 38.86 111.69 L 69.64 111.69 L 69.64 140 L 4.6 140 L 4.6 111.69 L 35.43 111.69 Z" fill="#5294cf" stroke="none" pointer-events="all"/><path d="M 38.86 98.22 L 38.86 94.97 L 63.13 94.97 C 70.42 94.97 76.49 89.7 76.49 84.69 L 76.47 87.86 C 76.47 92.77 70.53 98.22 63.39 98.22 Z M 35.43 98.22 L 12.89 98.22 C 6.28 98.22 0 93.01 0 87.89 L 0 84.81 C 0 89.28 5.8 94.97 13.04 94.97 L 35.43 94.97 Z M 69.64 140 L 4.6 140 L 4.6 136.63 L 69.64 136.63 Z" fill-opacity="0.3" fill="#000000" stroke="none" pointer-events="all"/><rect x="0" y="50" width="0" height="0" fill="none" stroke="rgb(240, 240, 240)" pointer-events="all"/><path d="M 35.43 94.97 L 35.43 84.64 L 32.08 84.64 L 37.14 77.34 L 42.17 84.64 L 38.86 84.64 L 38.86 94.97 Z M 23.2 123.91 C 23.2 126.86 20.89 129.33 17.82 129.33 C 15.11 129.33 12.51 127.44 12.45 123.88 C 12.45 120.94 14.88 118.55 17.85 118.55 C 20.5 118.55 23.2 120.64 23.2 123.91 Z M 43.97 129.33 L 29.95 129.33 L 37.02 118.44 Z M 50.68 129.33 L 50.68 118.43 L 61.55 118.43 L 61.55 129.33 Z" fill="#ffffff" stroke="none" pointer-events="all"/></g></g><g data-cell-id="BfndSBIKlCEP5RWGC1Yz-4"><g><path d="M 35.43 298.22 L 12.89 298.22 C 6.26 298.22 0 293.01 0 287.89 L 0 283.11 C 0 280.21 2.15 276.12 5.11 273.82 C 6.83 272.49 8.09 272.19 11 271.39 L 10.87 268.31 C 10.87 262.43 13.32 257.32 18.19 253.67 C 22.02 250.91 26.69 250 30.62 250.52 C 37 251.39 41.73 255.19 44.25 260.01 L 46.52 264.99 L 50.68 262.08 C 52.71 260.84 55.44 260.87 57.06 261.59 C 59.61 262.66 61.36 265.01 61.45 267.95 L 61.55 271.29 L 64.87 271.51 C 71 271.99 76.5 278.34 76.5 283.28 L 76.47 287.86 C 76.47 292.77 70.53 298.22 63.39 298.22 L 38.86 298.22 L 38.86 311.69 L 69.64 311.69 L 69.64 340 L 4.6 340 L 4.6 311.69 L 35.43 311.69 Z" fill="#5294cf" stroke="none" pointer-events="all"/><path d="M 38.86 298.22 L 38.86 294.97 L 63.13 294.97 C 70.42 294.97 76.49 289.7 76.49 284.69 L 76.47 287.86 C 76.47 292.77 70.53 298.22 63.39 298.22 Z M 35.43 298.22 L 12.89 298.22 C 6.28 298.22 0 293.01 0 287.89 L 0 284.81 C 0 289.28 5.8 294.97 13.04 294.97 L 35.43 294.97 Z M 69.64 340 L 4.6 340 L 4.6 336.63 L 69.64 336.63 Z" fill-opacity="0.3" fill="#000000" stroke="none" pointer-events="all"/><rect x="0" y="250" width="0" height="0" fill="none" stroke="rgb(240, 240, 240)" pointer-events="all"/><path d="M 35.43 294.97 L 35.43 284.64 L 32.08 284.64 L 37.14 277.34 L 42.17 284.64 L 38.86 284.64 L 38.86 294.97 Z M 23.2 323.91 C 23.2 326.86 20.89 329.33 17.82 329.33 C 15.11 329.33 12.51 327.44 12.45 323.88 C 12.45 320.94 14.88 318.55 17.85 318.55 C 20.5 318.55 23.2 320.64 23.2 323.91 Z M 43.97 329.33 L 29.95 329.33 L 37.02 318.44 Z M 50.68 329.33 L 50.68 318.43 L 61.55 318.43 L 61.55 329.33 Z" fill="#ffffff" stroke="none" pointer-events="all"/></g></g><g data-cell-id="BfndSBIKlCEP5RWGC1Yz-5"><g><path d="M 35.43 488.22 L 12.89 488.22 C 6.26 488.22 0 483.01 0 477.89 L 0 473.11 C 0 470.21 2.15 466.12 5.11 463.82 C 6.83 462.49 8.09 462.19 11 461.39 L 10.87 458.31 C 10.87 452.43 13.32 447.32 18.19 443.67 C 22.02 440.91 26.69 440 30.62 440.52 C 37 441.39 41.73 445.19 44.25 450.01 L 46.52 454.99 L 50.68 452.08 C 52.71 450.84 55.44 450.87 57.06 451.59 C 59.61 452.66 61.36 455.01 61.45 457.95 L 61.55 461.29 L 64.87 461.51 C 71 461.99 76.5 468.34 76.5 473.28 L 76.47 477.86 C 76.47 482.77 70.53 488.22 63.39 488.22 L 38.86 488.22 L 38.86 501.69 L 69.64 501.69 L 69.64 530 L 4.6 530 L 4.6 501.69 L 35.43 501.69 Z" fill="#5294cf" stroke="none" pointer-events="all"/><path d="M 38.86 488.22 L 38.86 484.97 L 63.13 484.97 C 70.42 484.97 76.49 479.7 76.49 474.69 L 76.47 477.86 C 76.47 482.77 70.53 488.22 63.39 488.22 Z M 35.43 488.22 L 12.89 488.22 C 6.28 488.22 0 483.01 0 477.89 L 0 474.81 C 0 479.28 5.8 484.97 13.04 484.97 L 35.43 484.97 Z M 69.64 530 L 4.6 530 L 4.6 526.63 L 69.64 526.63 Z" fill-opacity="0.3" fill="#000000" stroke="none" pointer-events="all"/><rect x="0" y="440" width="0" height="0" fill="none" stroke="rgb(240, 240, 240)" pointer-events="all"/><path d="M 35.43 484.97 L 35.43 474.64 L 32.08 474.64 L 37.14 467.34 L 42.17 474.64 L 38.86 474.64 L 38.86 484.97 Z M 23.2 513.91 C 23.2 516.86 20.89 519.33 17.82 519.33 C 15.11 519.33 12.51 517.44 12.45 513.88 C 12.45 510.94 14.88 508.55 17.85 508.55 C 20.5 508.55 23.2 510.64 23.2 513.91 Z M 43.97 519.33 L 29.95 519.33 L 37.02 508.44 Z M 50.68 519.33 L 50.68 508.43 L 61.55 508.43 L 61.55 519.33 Z" fill="#ffffff" stroke="none" pointer-events="all"/></g></g><g data-cell-id="BfndSBIKlCEP5RWGC1Yz-7"><g><rect x="710" y="243" width="45" height="94.29" rx="3" ry="3" fill="#cccccc" stroke="#6881b3" stroke-width="3" pointer-events="all"/><path d="M 710 258.71 L 755 258.71 M 710 290.14 L 755 290.14" fill="none" stroke="#6881b3" stroke-width="3" stroke-linejoin="round" stroke-miterlimit="10" pointer-events="all"/><rect x="740" y="250.86" width="120" height="70.71" fill="#cccccc" stroke="#6881b3" stroke-width="3" pointer-events="all"/><rect x="785" y="321.57" width="30" height="15.71" fill="#cccccc" stroke="#6881b3" stroke-width="3" pointer-events="all"/><path d="M 762.5 335.71 L 837.5 335.71 L 852.5 353 L 747.5 353 Z" fill="#cccccc" stroke="#6881b3" stroke-width="3" stroke-linejoin="round" stroke-miterlimit="10" pointer-events="all"/><path d="M 783.5 349.07 L 810.5 349.07 M 764 344.36 L 822.5 344.36 M 767 339.64 L 821 339.64 M 825.5 339.64 L 836 339.64 M 828.5 344.36 L 839 344.36 M 831.5 349.07 L 842 349.07" fill="none" stroke="#6881b3" stroke-width="3" stroke-linejoin="round" stroke-miterlimit="10" pointer-events="all"/><rect x="744.5" y="255.57" width="109.5" height="61.29" fill="#ffffff" stroke="none" pointer-events="all"/><ellipse cx="717.5" cy="298" rx="3" ry="3.142857142857143" fill="#ffffff" stroke="none" pointer-events="all"/></g></g><g data-cell-id="BfndSBIKlCEP5RWGC1Yz-8"><g><rect x="730" y="542" width="110" height="18" rx="2.4" ry="2.4" fill="#cccccc" stroke="#6881b3" stroke-width="2.4" pointer-events="all"/><rect x="730" y="521" width="110" height="18" rx="2.4" ry="2.4" fill="#cccccc" stroke="#6881b3" stroke-width="2.4" pointer-events="all"/><rect x="730" y="500" width="110" height="18" rx="2.4" ry="2.4" fill="#cccccc" stroke="#6881b3" stroke-width="2.4" pointer-events="all"/><rect x="730" y="479" width="110" height="18" rx="2.4" ry="2.4" fill="#cccccc" stroke="#6881b3" stroke-width="2.4" pointer-events="all"/><rect x="730" y="458" width="110" height="18" rx="2.4" ry="2.4" fill="#cccccc" stroke="#6881b3" stroke-width="2.4" pointer-events="all"/><path d="M 734.89 455.6 L 760.56 440 L 809.44 440 L 835.11 455.6 Z" fill="#cccccc" stroke="#6881b3" stroke-width="2.4" stroke-miterlimit="10" pointer-events="all"/><ellipse cx="830.22" cy="551" rx="4.888888888888889" ry="4.800000000000001" fill="#ffffff" stroke="none" pointer-events="all"/><ellipse cx="829.82" cy="530" rx="4.888888888888889" ry="4.800000000000001" fill="#ffffff" stroke="none" pointer-events="all"/><ellipse cx="830.22" cy="509" rx="4.888888888888889" ry="4.800000000000001" fill="#ffffff" stroke="none" pointer-events="all"/><ellipse cx="830.22" cy="488" rx="4.888888888888889" ry="4.800000000000001" fill="#ffffff" stroke="none" pointer-events="all"/><ellipse cx="830.22" cy="467" rx="4.888888888888889" ry="4.800000000000001" fill="#ffffff" stroke="none" pointer-events="all"/><path d="M 736.11 557.6 L 742.22 544.4 L 748.33 544.4 L 742.22 557.6 Z M 748.33 557.6 L 754.44 544.4 L 760.56 544.4 L 754.44 557.6 Z M 760.56 557.6 L 766.67 544.4 L 772.78 544.4 L 766.67 557.6 Z M 772.78 557.6 L 778.89 544.4 L 785 544.4 L 778.89 557.6 Z M 785 557.6 L 791.11 544.4 L 797.22 544.4 L 791.11 557.6 Z M 797.22 557.6 L 803.33 544.4 L 809.44 544.4 L 803.33 557.6 Z M 736.11 536.6 L 742.22 523.4 L 748.33 523.4 L 742.22 536.6 Z M 748.33 536.6 L 754.44 523.4 L 760.56 523.4 L 754.44 536.6 Z M 760.56 536.6 L 766.67 523.4 L 772.78 523.4 L 766.67 536.6 Z M 772.78 536.6 L 778.89 523.4 L 785 523.4 L 778.89 536.6 Z M 785 536.6 L 791.11 523.4 L 797.22 523.4 L 791.11 536.6 Z M 797.22 536.6 L 803.33 523.4 L 809.44 523.4 L 803.33 536.6 Z M 736.11 515.6 L 742.22 502.4 L 748.33 502.4 L 742.22 515.6 Z M 748.33 515.6 L 754.44 502.4 L 760.56 502.4 L 754.44 515.6 Z M 760.56 515.6 L 766.06 502.4 L 772.17 502.4 L 766.06 515.6 Z M 772.78 515.6 L 778.89 502.4 L 785 502.4 L 778.89 515.6 Z M 785 515.6 L 791.11 502.4 L 797.22 502.4 L 791.11 515.6 Z M 797.22 515.6 L 803.33 502.4 L 809.44 502.4 L 803.33 515.6 Z M 736.11 494.6 L 742.22 481.4 L 748.33 481.4 L 742.22 494.6 Z M 748.33 494.6 L 754.44 481.4 L 760.56 481.4 L 754.44 494.6 Z M 760.56 494.6 L 766.67 481.4 L 772.78 481.4 L 766.67 494.6 Z M 772.78 494.6 L 778.89 481.4 L 785 481.4 L 778.89 494.6 Z M 785 494.6 L 791.11 481.4 L 797.22 481.4 L 791.11 494.6 Z M 797.22 494.6 L 803.33 481.4 L 809.44 481.4 L 803.33 494.6 Z M 736.11 473.6 L 742.22 460.4 L 748.33 460.4 L 742.22 473.6 Z M 748.33 473.6 L 754.44 460.4 L 760.56 460.4 L 754.44 473.6 Z M 760.56 473.6 L 766.67 460.4 L 772.78 460.4 L 766.67 473.6 Z M 772.78 473.6 L 778.89 460.4 L 785 460.4 L 778.89 473.6 Z M 785 473.6 L 791.11 460.4 L 797.22 460.4 L 791.11 473.6 Z M 797.22 473.6 L 803.33 460.4 L 809.44 460.4 L 803.33 473.6 Z" fill="#ffffff" stroke="none" pointer-events="all"/></g></g><g data-cell-id="BfndSBIKlCEP5RWGC1Yz-9"><g><path d="M 97.78 104.51 L 103.06 96.02 L 316.08 228.46 L 321.62 219.54 L 329.58 242.74 L 305.26 245.87 L 310.8 236.95 Z" fill="#cccccc" stroke="none" pointer-events="all"/></g></g><g data-cell-id="BfndSBIKlCEP5RWGC1Yz-11"><g><path d="M 100.49 302.5 L 100.51 292.5 L 310.51 292.96 L 310.53 282.46 L 329.5 298 L 310.47 313.46 L 310.49 302.96 Z" fill="#cccccc" stroke="none" pointer-events="all"/></g></g><g data-cell-id="BfndSBIKlCEP5RWGC1Yz-12"><g><path d="M 102.76 484.2 L 98.13 475.34 L 310.4 364.59 L 305.54 355.28 L 329.56 360.23 L 319.88 382.76 L 315.02 373.45 Z" fill="#cccccc" stroke="none" pointer-events="all"/></g></g><g data-cell-id="BfndSBIKlCEP5RWGC1Yz-13"><g><path d="M 463.35 228.75 L 457.46 220.67 L 681.3 57.45 L 675.11 48.96 L 699.6 50.29 L 693.38 74.01 L 687.19 65.53 Z" fill="#cccccc" stroke="none" pointer-events="all"/></g></g><g data-cell-id="BfndSBIKlCEP5RWGC1Yz-15"><g><path d="M 460.5 287.5 L 460.5 277.5 L 680.5 277.5 L 680.5 267 L 699.5 282.5 L 680.5 298 L 680.5 287.5 Z" fill="#cccccc" stroke="none" pointer-events="all"/></g></g><g data-cell-id="BfndSBIKlCEP5RWGC1Yz-17"><g><path d="M 457.81 357.52 L 463.04 349 L 685.98 485.55 L 691.47 476.6 L 699.57 499.74 L 675.28 503.03 L 680.76 494.08 Z" fill="#cccccc" stroke="none" pointer-events="all"/></g></g><g data-cell-id="BfndSBIKlCEP5RWGC1Yz-18"><g><path d="M 696.63 76.28 L 702.57 84.32 L 486.72 243.86 L 490.58 249.09 L 470.4 249.7 L 476.91 230.59 L 480.77 235.82 Z" fill="none" stroke="rgb(240, 240, 240)" stroke-miterlimit="10" pointer-events="all"/></g></g><g data-cell-id="BfndSBIKlCEP5RWGC1Yz-21"><g><path d="M 679.5 307.5 L 679.5 317.5 L 477.09 317.5 L 477.09 324 L 460.5 312.5 L 477.09 301 L 477.09 307.5 Z" fill="none" stroke="rgb(240, 240, 240)" stroke-miterlimit="10" pointer-events="all"/></g></g><g data-cell-id="BfndSBIKlCEP5RWGC1Yz-22"><g><path d="M 672.22 515.49 L 666.93 523.98 L 461.86 396.28 L 458.43 401.8 L 450.42 383.26 L 470.59 382.27 L 467.15 387.79 Z" fill="none" stroke="rgb(240, 240, 240)" stroke-miterlimit="10" pointer-events="all"/></g></g><g data-cell-id="BfndSBIKlCEP5RWGC1Yz-26"><g><rect x="731.25" y="0" width="107.5" height="150" fill="none" stroke="none" pointer-events="all"/><path d="M 830.35 0.02 C 832.67 0 834.88 0.92 836.44 2.53 C 838 4.15 838.75 6.31 838.52 8.48 L 838.52 142.31 C 838.52 144.35 837.66 146.3 836.13 147.75 C 834.6 149.19 832.52 150 830.35 150 L 739.65 150 C 737.48 150 735.4 149.19 733.87 147.75 C 732.34 146.3 731.48 144.35 731.48 142.31 L 731.48 8.48 C 731.25 6.31 732 4.15 733.56 2.53 C 735.12 0.92 737.33 0 739.65 0.02 Z M 803.39 8.48 L 765.8 8.48 L 765.8 13.09 L 803.39 13.09 Z M 829.53 20.78 L 739.65 20.78 L 739.65 126.16 L 829.53 126.16 Z M 800.12 133.85 L 769.07 133.85 L 769.07 142.31 L 800.12 142.31 L 800.12 133.85 Z M 762.53 60.47 L 784.59 50.01 L 806.65 60.47 L 784.59 73.08 Z M 760.9 65.39 L 782.14 77.7 L 782.14 100.77 L 760.9 88.47 Z M 787.04 77.7 L 808.29 65.39 L 808.29 88.47 L 787.04 100.77 Z" fill="#00bef2" stroke="none" pointer-events="all"/></g></g></g></g></g></svg>